0
SECTION
2
HEADER
9
$INSUNITS
70
4
9
$ACADVER
1
AC1014
9
$HANDSEED
5
FFFF
0
ENDSEC
0
SECTION
2
TABLES
0
TABLE
2
VPORT
5
8
100
AcDbSymbolTable
0
ENDTAB
0
TABLE
2
LTYPE
5
5
100
AcDbSymbolTable
0
LTYPE
5
14
100
AcDbSymbolTableRecord
100
AcDbLinetypeTableRecord
2
BYBLOCK
70
0
0
LTYPE
5
15
100
AcDbSymbolTableRecord
100
AcDbLinetypeTableRecord
2
BYLAYER
70
0
0
ENDTAB
0
TABLE
2
LAYER
5
2
100
AcDbSymbolTable
70
2
0
LAYER
5
50
100
AcDbSymbolTableRecord
100
AcDbLayerTableRecord
2
0
70
0
6
CONTINUOUS
0
ENDTAB
0
TABLE
2
STYLE
5
3
100
AcDbSymbolTable
70
1
0
STYLE
5
11
100
AcDbSymbolTableRecord
100
AcDbTextStyleTableRecord
2
STANDARD
70
0
0
ENDTAB
0
TABLE
2
VIEW
5
6
100
AcDbSymbolTable
70
0
0
ENDTAB
0
TABLE
2
UCS
5
7
100
AcDbSymbolTable
70
0
0
ENDTAB
0
TABLE
2
APPID
5
9
100
AcDbSymbolTable
70
2
0
APPID
5
12
100
AcDbSymbolTableRecord
100
AcDbRegAppTableRecord
2
ACAD
70
0
0
ENDTAB
0
TABLE
2
DIMSTYLE
5
A
100
AcDbSymbolTable
70
1
0
ENDTAB
0
TABLE
2
BLOCK_RECORD
5
1
100
AcDbSymbolTable
70
1
0
BLOCK_RECORD
5
1F
100
AcDbSymbolTableRecord
100
AcDbBlockTableRecord
2
*MODEL_SPACE
0
BLOCK_RECORD
5
1B
100
AcDbSymbolTableRecord
100
AcDbBlockTableRecord
2
*PAPER_SPACE
0
ENDTAB
0
ENDSEC
0
SECTION
2
BLOCKS
0
BLOCK
5
20
100
AcDbEntity
100
AcDbBlockBegin
2
*MODEL_SPACE
0
ENDBLK
5
21
100
AcDbEntity
100
AcDbBlockEnd
0
BLOCK
5
1C
100
AcDbEntity
100
AcDbBlockBegin
2
*PAPER_SPACE
0
ENDBLK
5
1D
100
AcDbEntity
100
AcDbBlockEnd
0
ENDSEC
0
SECTION
2
ENTITIES
0
LWPOLYLINE
5
100
100
AcDbEntity
8
0
100
AcDbPolyline
90
16
70
1
43
0.0
10
-6.7734776887504378
20
0.40000000000000024
10
-1.9078784028338913
20
0.40000000000000024
42
0.32753822171853986
10
-1.7170905625505024
20
0.5399999999999997
42
-0.73379938570534287
10
1.7170905625505026
20
0.54000000000000015
42
0.32753822171853908
10
1.9078784028338924
20
0.40000000000000024
10
7.6171215971661086
20
0.40000000000000024
42
0.32753822171853847
10
7.8079094374494975
20
0.54000000000000037
42
-0.73379938570534275
10
11.242090562550505
20
0.54000000000000059
42
0.32753822171854807
10
11.432878402833893
20
0.40000000000000036
10
11.373412216355504
20
0.4000000000000003
42
0.39154775973118333
10
11.572804106839778
20
0.58441558441558183
42
-0.17858279111835518
10
13.74395515901422
20
5.3005554563128685
42
0.45639665626963116
10
13.722385942566014
20
5.601959590103208
42
0.35536802362312669
10
4.8947916666666611
20
5.2498734070385522
42
-0.3779800965676075
10
4.6302083333333304
20
5.2498734070385522
42
0.6148979704141877
10
-6.97269762077251
20
0.61764705882353033
42
0.44033395600501662
0
LWPOLYLINE
5
101
100
AcDbEntity
8
0
100
AcDbPolyline
90
16
70
1
43
0.0
10
-1.9078784028338913
20
-0.40000000000000024
10
-6.7734776887504395
20
-0.40000000000000024
42
0.44033395600501751
10
-6.9726976207725135
20
-0.61764705882352899
42
0.61489797041418792
10
4.630208333333333
20
-5.2498734070385522
42
-0.377980096567615
10
4.8947916666666655
20
-5.2498734070385522
42
0.35536802362312625
10
13.722385942566007
20
-5.601959590103208
42
0.45639665626962611
10
13.743955159014218
20
-5.3005554563128694
42
-0.17858279111835518
10
11.572804106839774
20
-0.58441558441558195
42
0.39154775973117134
10
11.373412216355501
20
-0.40000000000000002
10
11.432878402833893
20
-0.39999999999999991
42
0.3275382217185428
10
11.242090562550501
20
-0.54000000000000059
42
-0.73379938570534275
10
7.8079094374494993
20
-0.53999999999999959
42
0.32753822171853697
10
7.6171215971661095
20
-0.40000000000000013
10
1.9078784028338913
20
-0.40000000000000024
42
0.32753822171854025
10
1.7170905625505026
20
-0.54000000000000059
42
-0.73379938570534275
10
-1.7170905625505024
20
-0.53999999999999992
42
0.32753822171853875
0
LWPOLYLINE
5
102
100
AcDbEntity
8
0
100
AcDbPolyline
90
10
70
1
43
0.0
10
17.002195893160234
20
-0.58441558441558017
42
-0.17858279111835507
10
14.831044840985792
20
-5.3005554563128694
42
0.45639665626960724
10
14.852614057434
20
-5.6019595901032133
42
0.58775899040729918
10
26.022697620772519
20
-0.61764705882352966
42
0.44033395600501535
10
25.823477688750444
20
-0.40000000000000024
10
20.957878402833895
20
-0.39999999999999991
42
0.32753822171854829
10
20.7670905625505
20
-0.5400000000000017
42
-0.73379938570534275
10
17.332909437449501
20
-0.53999999999999881
42
0.32753822171854396
10
17.14212159716611
20
-0.3999999999999998
10
17.201587783644506
20
-0.3999999999999998
42
0.39154775973116585
0
LWPOLYLINE
5
103
100
AcDbEntity
8
0
100
AcDbPolyline
90
10
70
1
43
0.0
10
14.83104484098579
20
5.3005554563128712
42
-0.17858279111835507
10
17.002195893160231
20
0.58441558441558417
42
0.39154775973117539
10
17.201587783644502
20
0.39999999999999974
10
17.14212159716611
20
0.39999999999999974
42
0.32753822171854513
10
17.332909437449505
20
0.53999999999999848
42
-0.73379938570534275
10
20.7670905625505
20
0.53999999999999948
42
0.32753822171854563
10
20.957878402833895
20
0.39999999999999991
10
25.823477688750444
20
0.40000000000000024
42
0.44033395600501518
10
26.022697620772519
20
0.61764705882352955
42
0.58775899040729884
10
14.852614057434007
20
5.6019595901032133
42
0.45639665626962622
0
ENDSEC
0
SECTION
2
OBJECTS
0
DICTIONARY
5
C
100
AcDbDictionary
3
ACAD_GROUP
350
D
3
ACAD_MLINESTYLE
350
17
0
DICTIONARY
5
D
100
AcDbDictionary
0
DICTIONARY
5
1A
330
C
100
AcDbDictionary
0
DICTIONARY
5
17
100
AcDbDictionary
0
ENDSEC
0
EOF
